<svg width="124" height="29" viewBox="0 0 124 29" fill="none" xmlns="http://www.w3.org/2000/svg">
<path d="M9.46484 12.4219C9.46484 12.9414 9.33008 13.4082 9.06055 13.8223C8.79492 14.2363 8.4043 14.5605 7.88867 14.7949C7.37305 15.0293 6.76172 15.1465 6.05469 15.1465C5.20703 15.1465 4.50781 14.9863 3.95703 14.666C3.56641 14.4355 3.24805 14.1289 3.00195 13.7461C2.75977 13.3594 2.63867 12.9844 2.63867 12.6211C2.63867 12.4102 2.71094 12.2305 2.85547 12.082C3.00391 11.9297 3.19141 11.8535 3.41797 11.8535C3.60156 11.8535 3.75586 11.9121 3.88086 12.0293C4.00977 12.1465 4.11914 12.3203 4.20898 12.5508C4.31836 12.8242 4.43555 13.0527 4.56055 13.2363C4.68945 13.4199 4.86914 13.5723 5.09961 13.6934C5.33008 13.8105 5.63281 13.8691 6.00781 13.8691C6.52344 13.8691 6.94141 13.75 7.26172 13.5117C7.58594 13.2695 7.74805 12.9688 7.74805 12.6094C7.74805 12.3242 7.66016 12.0938 7.48438 11.918C7.3125 11.7383 7.08789 11.6016 6.81055 11.5078C6.53711 11.4141 6.16992 11.3145 5.70898 11.209C5.0918 11.0645 4.57422 10.8965 4.15625 10.7051C3.74219 10.5098 3.41211 10.2461 3.16602 9.91406C2.92383 9.57812 2.80273 9.16211 2.80273 8.66602C2.80273 8.19336 2.93164 7.77344 3.18945 7.40625C3.44727 7.03906 3.82031 6.75781 4.30859 6.5625C4.79688 6.36328 5.37109 6.26367 6.03125 6.26367C6.55859 6.26367 7.01367 6.33008 7.39648 6.46289C7.7832 6.5918 8.10352 6.76562 8.35742 6.98438C8.61133 7.19922 8.79688 7.42578 8.91406 7.66406C9.03125 7.90234 9.08984 8.13477 9.08984 8.36133C9.08984 8.56836 9.01562 8.75586 8.86719 8.92383C8.72266 9.08789 8.54102 9.16992 8.32227 9.16992C8.12305 9.16992 7.9707 9.12109 7.86523 9.02344C7.76367 8.92188 7.65234 8.75781 7.53125 8.53125C7.375 8.20703 7.1875 7.95508 6.96875 7.77539C6.75 7.5918 6.39844 7.5 5.91406 7.5C5.46484 7.5 5.10156 7.59961 4.82422 7.79883C4.55078 7.99414 4.41406 8.23047 4.41406 8.50781C4.41406 8.67969 4.46094 8.82812 4.55469 8.95312C4.64844 9.07812 4.77734 9.18555 4.94141 9.27539C5.10547 9.36523 5.27148 9.43555 5.43945 9.48633C5.60742 9.53711 5.88477 9.61133 6.27148 9.70898C6.75586 9.82227 7.19336 9.94727 7.58398 10.084C7.97852 10.2207 8.3125 10.3867 8.58594 10.582C8.86328 10.7773 9.07812 11.0254 9.23047 11.3262C9.38672 11.623 9.46484 11.9883 9.46484 12.4219Z" fill="#1C3866"/>
<path d="M7.38636 21H6.68182C6.64015 20.7973 6.56724 20.6193 6.46307 20.4659C6.3608 20.3125 6.2358 20.1837 6.08807 20.0795C5.94223 19.9735 5.7803 19.8939 5.60227 19.8409C5.42424 19.7879 5.23864 19.7614 5.04545 19.7614C4.69318 19.7614 4.37405 19.8504 4.08807 20.0284C3.80398 20.2064 3.57765 20.4688 3.40909 20.8153C3.24242 21.1619 3.15909 21.5871 3.15909 22.0909C3.15909 22.5947 3.24242 23.0199 3.40909 23.3665C3.57765 23.7131 3.80398 23.9754 4.08807 24.1534C4.37405 24.3314 4.69318 24.4205 5.04545 24.4205C5.23864 24.4205 5.42424 24.3939 5.60227 24.3409C5.7803 24.2879 5.94223 24.2093 6.08807 24.1051C6.2358 23.9991 6.3608 23.8693 6.46307 23.7159C6.56724 23.5606 6.64015 23.3826 6.68182 23.1818H7.38636C7.33333 23.4792 7.23674 23.7453 7.09659 23.9801C6.95644 24.215 6.7822 24.4148 6.57386 24.5795C6.36553 24.7424 6.13163 24.8665 5.87216 24.9517C5.61458 25.0369 5.33902 25.0795 5.04545 25.0795C4.54924 25.0795 4.10795 24.9583 3.72159 24.7159C3.33523 24.4735 3.03125 24.1288 2.80966 23.6818C2.58807 23.2348 2.47727 22.7045 2.47727 22.0909C2.47727 21.4773 2.58807 20.947 2.80966 20.5C3.03125 20.053 3.33523 19.7083 3.72159 19.4659C4.10795 19.2235 4.54924 19.1023 5.04545 19.1023C5.33902 19.1023 5.61458 19.1449 5.87216 19.2301C6.13163 19.3153 6.36553 19.4403 6.57386 19.6051C6.7822 19.768 6.95644 19.9669 7.09659 20.2017C7.23674 20.4347 7.33333 20.7008 7.38636 21ZM10.2067 25.0909C9.81274 25.0909 9.46709 24.9972 9.16974 24.8097C8.87429 24.6222 8.64323 24.3598 8.47656 24.0227C8.31179 23.6856 8.2294 23.2917 8.2294 22.8409C8.2294 22.3864 8.31179 21.9896 8.47656 21.6506C8.64323 21.3116 8.87429 21.0483 9.16974 20.8608C9.46709 20.6733 9.81274 20.5795 10.2067 20.5795C10.6006 20.5795 10.9453 20.6733 11.2408 20.8608C11.5381 21.0483 11.7692 21.3116 11.9339 21.6506C12.1006 21.9896 12.1839 22.3864 12.1839 22.8409C12.1839 23.2917 12.1006 23.6856 11.9339 24.0227C11.7692 24.3598 11.5381 24.6222 11.2408 24.8097C10.9453 24.9972 10.6006 25.0909 10.2067 25.0909ZM10.2067 24.4886C10.5059 24.4886 10.7521 24.4119 10.9453 24.2585C11.1385 24.1051 11.2815 23.9034 11.3743 23.6534C11.4671 23.4034 11.5135 23.1326 11.5135 22.8409C11.5135 22.5492 11.4671 22.2775 11.3743 22.0256C11.2815 21.7737 11.1385 21.5701 10.9453 21.4148C10.7521 21.2595 10.5059 21.1818 10.2067 21.1818C9.90743 21.1818 9.66122 21.2595 9.46804 21.4148C9.27486 21.5701 9.13187 21.7737 9.03906 22.0256C8.94626 22.2775 8.89986 22.5492 8.89986 22.8409C8.89986 23.1326 8.94626 23.4034 9.03906 23.6534C9.13187 23.9034 9.27486 24.1051 9.46804 24.2585C9.66122 24.4119 9.90743 24.4886 10.2067 24.4886ZM13.2074 25V20.6364H13.8551V21.2955H13.9006C13.9801 21.0795 14.1241 20.9044 14.3324 20.7699C14.5407 20.6354 14.7756 20.5682 15.0369 20.5682C15.0862 20.5682 15.1477 20.5691 15.2216 20.571C15.2955 20.5729 15.3513 20.5758 15.3892 20.5795V21.2614C15.3665 21.2557 15.3144 21.2472 15.233 21.2358C15.1534 21.2225 15.0691 21.2159 14.9801 21.2159C14.768 21.2159 14.5786 21.2604 14.4119 21.3494C14.2472 21.4366 14.1165 21.5578 14.0199 21.7131C13.9252 21.8665 13.8778 22.0417 13.8778 22.2386V25H13.2074ZM16.1839 26.6364V20.6364H16.8317V21.3295H16.9112C16.9605 21.2538 17.0286 21.1572 17.1158 21.0398C17.2048 20.9205 17.3317 20.8144 17.4964 20.7216C17.6631 20.6269 17.8885 20.5795 18.1726 20.5795C18.54 20.5795 18.8639 20.6714 19.1442 20.8551C19.4245 21.0388 19.6432 21.2992 19.8004 21.6364C19.9576 21.9735 20.0362 22.3712 20.0362 22.8295C20.0362 23.2917 19.9576 23.6922 19.8004 24.0312C19.6432 24.3684 19.4254 24.6297 19.147 24.8153C18.8686 24.9991 18.5476 25.0909 18.1839 25.0909C17.9036 25.0909 17.6792 25.0445 17.5107 24.9517C17.3421 24.857 17.2124 24.75 17.1214 24.6307C17.0305 24.5095 16.9605 24.4091 16.9112 24.3295H16.8544V26.6364H16.1839ZM16.843 22.8182C16.843 23.1477 16.8913 23.4384 16.9879 23.6903C17.0845 23.9403 17.2256 24.1364 17.4112 24.2784C17.5968 24.4186 17.8241 24.4886 18.093 24.4886C18.3733 24.4886 18.6072 24.4148 18.7947 24.267C18.9841 24.1174 19.1262 23.9167 19.2209 23.6648C19.3175 23.411 19.3658 23.1288 19.3658 22.8182C19.3658 22.5114 19.3184 22.2348 19.2237 21.9886C19.1309 21.7405 18.9898 21.5445 18.8004 21.4006C18.6129 21.2547 18.3771 21.1818 18.093 21.1818C17.8203 21.1818 17.5911 21.2509 17.4055 21.3892C17.2199 21.5256 17.0798 21.7169 16.9851 21.9631C16.8904 22.2074 16.843 22.4924 16.843 22.8182ZM22.8317 25.0909C22.4377 25.0909 22.0921 24.9972 21.7947 24.8097C21.4993 24.6222 21.2682 24.3598 21.1016 24.0227C20.9368 23.6856 20.8544 23.2917 20.8544 22.8409C20.8544 22.3864 20.9368 21.9896 21.1016 21.6506C21.2682 21.3116 21.4993 21.0483 21.7947 20.8608C22.0921 20.6733 22.4377 20.5795 22.8317 20.5795C23.2256 20.5795 23.5703 20.6733 23.8658 20.8608C24.1631 21.0483 24.3942 21.3116 24.5589 21.6506C24.7256 21.9896 24.8089 22.3864 24.8089 22.8409C24.8089 23.2917 24.7256 23.6856 24.5589 24.0227C24.3942 24.3598 24.1631 24.6222 23.8658 24.8097C23.5703 24.9972 23.2256 25.0909 22.8317 25.0909ZM22.8317 24.4886C23.1309 24.4886 23.3771 24.4119 23.5703 24.2585C23.7635 24.1051 23.9065 23.9034 23.9993 23.6534C24.0921 23.4034 24.1385 23.1326 24.1385 22.8409C24.1385 22.5492 24.0921 22.2775 23.9993 22.0256C23.9065 21.7737 23.7635 21.5701 23.5703 21.4148C23.3771 21.2595 23.1309 21.1818 22.8317 21.1818C22.5324 21.1818 22.2862 21.2595 22.093 21.4148C21.8999 21.5701 21.7569 21.7737 21.6641 22.0256C21.5713 22.2775 21.5249 22.5492 21.5249 22.8409C21.5249 23.1326 21.5713 23.4034 21.6641 23.6534C21.7569 23.9034 21.8999 24.1051 22.093 24.2585C22.2862 24.4119 22.5324 24.4886 22.8317 24.4886ZM25.8324 25V20.6364H26.4801V21.2955H26.5256C26.6051 21.0795 26.7491 20.9044 26.9574 20.7699C27.1657 20.6354 27.4006 20.5682 27.6619 20.5682C27.7112 20.5682 27.7727 20.5691 27.8466 20.571C27.9205 20.5729 27.9763 20.5758 28.0142 20.5795V21.2614C27.9915 21.2557 27.9394 21.2472 27.858 21.2358C27.7784 21.2225 27.6941 21.2159 27.6051 21.2159C27.393 21.2159 27.2036 21.2604 27.0369 21.3494C26.8722 21.4366 26.7415 21.5578 26.6449 21.7131C26.5502 21.8665 26.5028 22.0417 26.5028 22.2386V25H25.8324ZM30.093 25.1023C29.8165 25.1023 29.5656 25.0502 29.3402 24.946C29.1148 24.84 28.9358 24.6875 28.8033 24.4886C28.6707 24.2879 28.6044 24.0455 28.6044 23.7614C28.6044 23.5114 28.6536 23.3087 28.7521 23.1534C28.8506 22.9962 28.9822 22.8731 29.147 22.7841C29.3118 22.6951 29.4936 22.6288 29.6925 22.5852C29.8932 22.5398 30.0949 22.5038 30.2976 22.4773C30.5627 22.4432 30.7777 22.4176 30.9425 22.4006C31.1091 22.3816 31.2304 22.3504 31.3061 22.3068C31.3838 22.2633 31.4226 22.1875 31.4226 22.0795V22.0568C31.4226 21.7765 31.3459 21.5587 31.1925 21.4034C31.041 21.2481 30.8108 21.1705 30.5021 21.1705C30.1821 21.1705 29.9311 21.2405 29.7493 21.3807C29.5675 21.5208 29.4396 21.6705 29.3658 21.8295L28.7294 21.6023C28.843 21.3371 28.9946 21.1307 29.1839 20.983C29.3752 20.8333 29.5836 20.7292 29.8089 20.6705C30.0362 20.6098 30.2597 20.5795 30.4794 20.5795C30.6196 20.5795 30.7805 20.5966 30.9624 20.6307C31.1461 20.6629 31.3232 20.7301 31.4936 20.8324C31.666 20.9347 31.8089 21.089 31.9226 21.2955C32.0362 21.5019 32.093 21.7784 32.093 22.125V25H31.4226V24.4091H31.3885C31.343 24.5038 31.2673 24.6051 31.1612 24.7131C31.0552 24.821 30.9141 24.9129 30.7379 24.9886C30.5618 25.0644 30.3468 25.1023 30.093 25.1023ZM30.1953 24.5C30.4605 24.5 30.6839 24.4479 30.8658 24.3438C31.0495 24.2396 31.1877 24.1051 31.2805 23.9403C31.3752 23.7756 31.4226 23.6023 31.4226 23.4205V22.8068C31.3942 22.8409 31.3317 22.8722 31.2351 22.9006C31.1404 22.9271 31.0305 22.9508 30.9055 22.9716C30.7824 22.9905 30.6622 23.0076 30.5447 23.0227C30.4292 23.036 30.3355 23.0473 30.2635 23.0568C30.0893 23.0795 29.9264 23.1165 29.7749 23.1676C29.6252 23.2169 29.504 23.2917 29.4112 23.392C29.3203 23.4905 29.2749 23.625 29.2749 23.7955C29.2749 24.0284 29.361 24.2045 29.5334 24.3239C29.7076 24.4413 29.9283 24.5 30.1953 24.5ZM35.2145 20.6364V21.2045H32.9531V20.6364H35.2145ZM33.6122 19.5909H34.2827V23.75C34.2827 23.9394 34.3101 24.0814 34.3651 24.1761C34.4219 24.2689 34.4938 24.3314 34.581 24.3636C34.67 24.3939 34.7637 24.4091 34.8622 24.4091C34.9361 24.4091 34.9967 24.4053 35.044 24.3977C35.0914 24.3883 35.1293 24.3807 35.1577 24.375L35.294 24.9773C35.2486 24.9943 35.1851 25.0114 35.1037 25.0284C35.0223 25.0473 34.919 25.0568 34.794 25.0568C34.6046 25.0568 34.419 25.0161 34.2372 24.9347C34.0573 24.8532 33.9077 24.7292 33.7884 24.5625C33.6709 24.3958 33.6122 24.1856 33.6122 23.9318V19.5909ZM38.0057 25.0909C37.5852 25.0909 37.2225 24.9981 36.9176 24.8125C36.6146 24.625 36.3807 24.3636 36.2159 24.0284C36.053 23.6913 35.9716 23.2992 35.9716 22.8523C35.9716 22.4053 36.053 22.0114 36.2159 21.6705C36.3807 21.3277 36.6098 21.0606 36.9034 20.8693C37.1989 20.6761 37.5436 20.5795 37.9375 20.5795C38.1648 20.5795 38.3892 20.6174 38.6108 20.6932C38.8324 20.7689 39.0341 20.892 39.2159 21.0625C39.3977 21.2311 39.5426 21.4545 39.6506 21.733C39.7585 22.0114 39.8125 22.3542 39.8125 22.7614V23.0455H36.4489V22.4659H39.1307C39.1307 22.2197 39.0814 22 38.983 21.8068C38.8864 21.6136 38.7481 21.4612 38.5682 21.3494C38.3902 21.2377 38.1799 21.1818 37.9375 21.1818C37.6705 21.1818 37.4394 21.2481 37.2443 21.3807C37.0511 21.5114 36.9025 21.6818 36.7983 21.892C36.6941 22.1023 36.642 22.3277 36.642 22.5682V22.9545C36.642 23.2841 36.6989 23.5634 36.8125 23.7926C36.928 24.0199 37.0881 24.1932 37.2926 24.3125C37.4972 24.4299 37.7348 24.4886 38.0057 24.4886C38.1818 24.4886 38.3409 24.464 38.483 24.4148C38.6269 24.3636 38.7509 24.2879 38.8551 24.1875C38.9593 24.0852 39.0398 23.9583 39.0966 23.8068L39.7443 23.9886C39.6761 24.2083 39.5616 24.4015 39.4006 24.5682C39.2396 24.733 39.0407 24.8617 38.804 24.9545C38.5672 25.0455 38.3011 25.0909 38.0057 25.0909ZM43.8778 19.1818V25H43.1733V19.1818H43.8778ZM45.87 22.375V25H45.1996V20.6364H45.8473V21.3182H45.9041C46.0064 21.0966 46.1617 20.9186 46.37 20.7841C46.5784 20.6477 46.8473 20.5795 47.1768 20.5795C47.4723 20.5795 47.7308 20.6402 47.9524 20.7614C48.174 20.8807 48.3464 21.0625 48.4695 21.3068C48.5926 21.5492 48.6541 21.8561 48.6541 22.2273V25H47.9837V22.2727C47.9837 21.9299 47.8946 21.6629 47.7166 21.4716C47.5386 21.2784 47.2943 21.1818 46.9837 21.1818C46.7696 21.1818 46.5784 21.2282 46.4098 21.321C46.2431 21.4138 46.1115 21.5492 46.0149 21.7273C45.9183 21.9053 45.87 22.1212 45.87 22.375ZM51.777 20.6364V21.2045H49.5156V20.6364H51.777ZM50.1747 19.5909H50.8452V23.75C50.8452 23.9394 50.8726 24.0814 50.9276 24.1761C50.9844 24.2689 51.0563 24.3314 51.1435 24.3636C51.2325 24.3939 51.3262 24.4091 51.4247 24.4091C51.4986 24.4091 51.5592 24.4053 51.6065 24.3977C51.6539 24.3883 51.6918 24.3807 51.7202 24.375L51.8565 24.9773C51.8111 24.9943 51.7476 25.0114 51.6662 25.0284C51.5848 25.0473 51.4815 25.0568 51.3565 25.0568C51.1671 25.0568 50.9815 25.0161 50.7997 24.9347C50.6198 24.8532 50.4702 24.7292 50.3509 24.5625C50.2334 24.3958 50.1747 24.1856 50.1747 23.9318V19.5909ZM54.5682 25.0909C54.1477 25.0909 53.785 24.9981 53.4801 24.8125C53.1771 24.625 52.9432 24.3636 52.7784 24.0284C52.6155 23.6913 52.5341 23.2992 52.5341 22.8523C52.5341 22.4053 52.6155 22.0114 52.7784 21.6705C52.9432 21.3277 53.1723 21.0606 53.4659 20.8693C53.7614 20.6761 54.1061 20.5795 54.5 20.5795C54.7273 20.5795 54.9517 20.6174 55.1733 20.6932C55.3949 20.7689 55.5966 20.892 55.7784 21.0625C55.9602 21.2311 56.1051 21.4545 56.2131 21.733C56.321 22.0114 56.375 22.3542 56.375 22.7614V23.0455H53.0114V22.4659H55.6932C55.6932 22.2197 55.6439 22 55.5455 21.8068C55.4489 21.6136 55.3106 21.4612 55.1307 21.3494C54.9527 21.2377 54.7424 21.1818 54.5 21.1818C54.233 21.1818 54.0019 21.2481 53.8068 21.3807C53.6136 21.5114 53.465 21.6818 53.3608 21.892C53.2566 22.1023 53.2045 22.3277 53.2045 22.5682V22.9545C53.2045 23.2841 53.2614 23.5634 53.375 23.7926C53.4905 24.0199 53.6506 24.1932 53.8551 24.3125C54.0597 24.4299 54.2973 24.4886 54.5682 24.4886C54.7443 24.4886 54.9034 24.464 55.0455 24.4148C55.1894 24.3636 55.3134 24.2879 55.4176 24.1875C55.5218 24.0852 55.6023 23.9583 55.6591 23.8068L56.3068 23.9886C56.2386 24.2083 56.1241 24.4015 55.9631 24.5682C55.8021 24.733 55.6032 24.8617 55.3665 24.9545C55.1297 25.0455 54.8636 25.0909 54.5682 25.0909ZM58.0653 19.1818V25H57.3949V19.1818H58.0653ZM59.9638 19.1818V25H59.2933V19.1818H59.9638ZM61.1918 25V20.6364H61.8622V25H61.1918ZM61.5327 19.9091C61.402 19.9091 61.2893 19.8646 61.1946 19.7756C61.1018 19.6866 61.0554 19.5795 61.0554 19.4545C61.0554 19.3295 61.1018 19.2225 61.1946 19.1335C61.2893 19.0445 61.402 19 61.5327 19C61.6634 19 61.7751 19.0445 61.8679 19.1335C61.9626 19.2225 62.0099 19.3295 62.0099 19.4545C62.0099 19.5795 61.9626 19.6866 61.8679 19.7756C61.7751 19.8646 61.6634 19.9091 61.5327 19.9091ZM64.8516 26.7273C64.5277 26.7273 64.2493 26.6856 64.0163 26.6023C63.7834 26.5208 63.5893 26.4129 63.4339 26.2784C63.2805 26.1458 63.1584 26.0038 63.0675 25.8523L63.6016 25.4773C63.6622 25.5568 63.7389 25.6477 63.8317 25.75C63.9245 25.8542 64.0514 25.9441 64.2124 26.0199C64.3752 26.0975 64.5883 26.1364 64.8516 26.1364C65.2038 26.1364 65.4946 26.0511 65.7237 25.8807C65.9529 25.7102 66.0675 25.4432 66.0675 25.0795V24.1932H66.0107C65.9614 24.2727 65.8913 24.3712 65.8004 24.4886C65.7114 24.6042 65.5826 24.7074 65.4141 24.7983C65.2474 24.8873 65.022 24.9318 64.7379 24.9318C64.3857 24.9318 64.0694 24.8485 63.7891 24.6818C63.5107 24.5152 63.29 24.2727 63.1271 23.9545C62.9661 23.6364 62.8857 23.25 62.8857 22.7955C62.8857 22.3485 62.9643 21.9593 63.1214 21.6278C63.2786 21.2945 63.4974 21.0369 63.7777 20.8551C64.058 20.6714 64.3819 20.5795 64.7493 20.5795C65.0334 20.5795 65.2588 20.6269 65.4254 20.7216C65.594 20.8144 65.7228 20.9205 65.8118 21.0398C65.9027 21.1572 65.9728 21.2538 66.022 21.3295H66.0902V20.6364H66.7379V25.125C66.7379 25.5 66.6527 25.8049 66.4822 26.0398C66.3137 26.2765 66.0864 26.4498 65.8004 26.5597C65.5163 26.6714 65.2 26.7273 64.8516 26.7273ZM64.8288 24.3295C65.0978 24.3295 65.325 24.268 65.5107 24.1449C65.6963 24.0218 65.8374 23.8447 65.9339 23.6136C66.0305 23.3826 66.0788 23.1061 66.0788 22.7841C66.0788 22.4697 66.0315 22.1922 65.9368 21.9517C65.8421 21.7112 65.7019 21.5227 65.5163 21.3864C65.3307 21.25 65.1016 21.1818 64.8288 21.1818C64.5447 21.1818 64.308 21.2538 64.1186 21.3977C63.9311 21.5417 63.79 21.7348 63.6953 21.9773C63.6025 22.2197 63.5561 22.4886 63.5561 22.7841C63.5561 23.0871 63.6035 23.3551 63.6982 23.5881C63.7947 23.8191 63.9368 24.0009 64.1243 24.1335C64.3137 24.2642 64.5485 24.3295 64.8288 24.3295ZM69.7947 25.0909C69.3743 25.0909 69.0116 24.9981 68.7067 24.8125C68.4036 24.625 68.1697 24.3636 68.005 24.0284C67.8421 23.6913 67.7607 23.2992 67.7607 22.8523C67.7607 22.4053 67.8421 22.0114 68.005 21.6705C68.1697 21.3277 68.3989 21.0606 68.6925 20.8693C68.9879 20.6761 69.3326 20.5795 69.7266 20.5795C69.9538 20.5795 70.1783 20.6174 70.3999 20.6932C70.6214 20.7689 70.8232 20.892 71.005 21.0625C71.1868 21.2311 71.3317 21.4545 71.4396 21.733C71.5476 22.0114 71.6016 22.3542 71.6016 22.7614V23.0455H68.2379V22.4659H70.9197C70.9197 22.2197 70.8705 22 70.772 21.8068C70.6754 21.6136 70.5372 21.4612 70.3572 21.3494C70.1792 21.2377 69.969 21.1818 69.7266 21.1818C69.4595 21.1818 69.2285 21.2481 69.0334 21.3807C68.8402 21.5114 68.6915 21.6818 68.5874 21.892C68.4832 22.1023 68.4311 22.3277 68.4311 22.5682V22.9545C68.4311 23.2841 68.4879 23.5634 68.6016 23.7926C68.7171 24.0199 68.8771 24.1932 69.0817 24.3125C69.2862 24.4299 69.5239 24.4886 69.7947 24.4886C69.9709 24.4886 70.13 24.464 70.272 24.4148C70.416 24.3636 70.54 24.2879 70.6442 24.1875C70.7483 24.0852 70.8288 23.9583 70.8857 23.8068L71.5334 23.9886C71.4652 24.2083 71.3506 24.4015 71.1896 24.5682C71.0286 24.733 70.8298 24.8617 70.593 24.9545C70.3563 25.0455 70.0902 25.0909 69.7947 25.0909ZM73.2919 22.375V25H72.6214V20.6364H73.2692V21.3182H73.326C73.4283 21.0966 73.5836 20.9186 73.7919 20.7841C74.0002 20.6477 74.2692 20.5795 74.5987 20.5795C74.8942 20.5795 75.1527 20.6402 75.3743 20.7614C75.5959 20.8807 75.7682 21.0625 75.8913 21.3068C76.0144 21.5492 76.076 21.8561 76.076 22.2273V25H75.4055V22.2727C75.4055 21.9299 75.3165 21.6629 75.1385 21.4716C74.9605 21.2784 74.7161 21.1818 74.4055 21.1818C74.1915 21.1818 74.0002 21.2282 73.8317 21.321C73.665 21.4138 73.5334 21.5492 73.4368 21.7273C73.3402 21.9053 73.2919 22.1212 73.2919 22.375ZM79.0739 25.0909C78.6648 25.0909 78.3125 24.9943 78.017 24.8011C77.7216 24.608 77.4943 24.3419 77.3352 24.0028C77.1761 23.6638 77.0966 23.2765 77.0966 22.8409C77.0966 22.3977 77.178 22.0066 77.3409 21.6676C77.5057 21.3267 77.7348 21.0606 78.0284 20.8693C78.3239 20.6761 78.6686 20.5795 79.0625 20.5795C79.3693 20.5795 79.6458 20.6364 79.892 20.75C80.1383 20.8636 80.34 21.0227 80.4972 21.2273C80.6544 21.4318 80.7519 21.6705 80.7898 21.9432H80.1193C80.0682 21.7443 79.9545 21.5682 79.7784 21.4148C79.6042 21.2595 79.3693 21.1818 79.0739 21.1818C78.8125 21.1818 78.5833 21.25 78.3864 21.3864C78.1913 21.5208 78.0388 21.7112 77.929 21.9574C77.821 22.2017 77.767 22.4886 77.767 22.8182C77.767 23.1553 77.8201 23.4489 77.9261 23.6989C78.0341 23.9489 78.1856 24.143 78.3807 24.2812C78.5777 24.4195 78.8087 24.4886 79.0739 24.4886C79.2481 24.4886 79.4062 24.4583 79.5483 24.3977C79.6903 24.3371 79.8106 24.25 79.9091 24.1364C80.0076 24.0227 80.0777 23.8864 80.1193 23.7273H80.7898C80.7519 23.9848 80.6581 24.2169 80.5085 24.4233C80.3608 24.6278 80.1648 24.7907 79.9205 24.9119C79.678 25.0312 79.3958 25.0909 79.0739 25.0909ZM83.5994 25.0909C83.179 25.0909 82.8163 24.9981 82.5114 24.8125C82.2083 24.625 81.9744 24.3636 81.8097 24.0284C81.6468 23.6913 81.5653 23.2992 81.5653 22.8523C81.5653 22.4053 81.6468 22.0114 81.8097 21.6705C81.9744 21.3277 82.2036 21.0606 82.4972 20.8693C82.7926 20.6761 83.1373 20.5795 83.5312 20.5795C83.7585 20.5795 83.983 20.6174 84.2045 20.6932C84.4261 20.7689 84.6278 20.892 84.8097 21.0625C84.9915 21.2311 85.1364 21.4545 85.2443 21.733C85.3523 22.0114 85.4062 22.3542 85.4062 22.7614V23.0455H82.0426V22.4659H84.7244C84.7244 22.2197 84.6752 22 84.5767 21.8068C84.4801 21.6136 84.3419 21.4612 84.1619 21.3494C83.9839 21.2377 83.7737 21.1818 83.5312 21.1818C83.2642 21.1818 83.0331 21.2481 82.8381 21.3807C82.6449 21.5114 82.4962 21.6818 82.392 21.892C82.2879 22.1023 82.2358 22.3277 82.2358 22.5682V22.9545C82.2358 23.2841 82.2926 23.5634 82.4062 23.7926C82.5218 24.0199 82.6818 24.1932 82.8864 24.3125C83.0909 24.4299 83.3286 24.4886 83.5994 24.4886C83.7756 24.4886 83.9347 24.464 84.0767 24.4148C84.2206 24.3636 84.3447 24.2879 84.4489 24.1875C84.553 24.0852 84.6335 23.9583 84.6903 23.8068L85.3381 23.9886C85.2699 24.2083 85.1553 24.4015 84.9943 24.5682C84.8333 24.733 84.6345 24.8617 84.3977 24.9545C84.161 25.0455 83.8949 25.0909 83.5994 25.0909ZM88.767 25V19.1818H90.733C91.1894 19.1818 91.5625 19.2642 91.8523 19.429C92.1439 19.5919 92.3598 19.8125 92.5 20.0909C92.6402 20.3693 92.7102 20.6799 92.7102 21.0227C92.7102 21.3655 92.6402 21.6771 92.5 21.9574C92.3617 22.2377 92.1477 22.4612 91.858 22.6278C91.5682 22.7926 91.197 22.875 90.7443 22.875H89.3352V22.25H90.7216C91.0341 22.25 91.285 22.196 91.4744 22.0881C91.6638 21.9801 91.8011 21.8343 91.8864 21.6506C91.9735 21.465 92.017 21.2557 92.017 21.0227C92.017 20.7898 91.9735 20.5814 91.8864 20.3977C91.8011 20.214 91.6629 20.0701 91.4716 19.9659C91.2803 19.8598 91.0265 19.8068 90.7102 19.8068H89.4716V25H88.767ZM94.4247 19.1818V25H93.7543V19.1818H94.4247ZM96.9368 25.1023C96.6603 25.1023 96.4093 25.0502 96.1839 24.946C95.9586 24.84 95.7796 24.6875 95.647 24.4886C95.5144 24.2879 95.4482 24.0455 95.4482 23.7614C95.4482 23.5114 95.4974 23.3087 95.5959 23.1534C95.6944 22.9962 95.826 22.8731 95.9908 22.7841C96.1555 22.6951 96.3374 22.6288 96.5362 22.5852C96.737 22.5398 96.9387 22.5038 97.1413 22.4773C97.4065 22.4432 97.6214 22.4176 97.7862 22.4006C97.9529 22.3816 98.0741 22.3504 98.1499 22.3068C98.2275 22.2633 98.2663 22.1875 98.2663 22.0795V22.0568C98.2663 21.7765 98.1896 21.5587 98.0362 21.4034C97.8847 21.2481 97.6546 21.1705 97.3459 21.1705C97.0258 21.1705 96.7749 21.2405 96.593 21.3807C96.4112 21.5208 96.2834 21.6705 96.2095 21.8295L95.5732 21.6023C95.6868 21.3371 95.8383 21.1307 96.0277 20.983C96.219 20.8333 96.4273 20.7292 96.6527 20.6705C96.88 20.6098 97.1035 20.5795 97.3232 20.5795C97.4633 20.5795 97.6243 20.5966 97.8061 20.6307C97.9898 20.6629 98.1669 20.7301 98.3374 20.8324C98.5097 20.9347 98.6527 21.089 98.7663 21.2955C98.88 21.5019 98.9368 21.7784 98.9368 22.125V25H98.2663V24.4091H98.2322C98.1868 24.5038 98.111 24.6051 98.005 24.7131C97.8989 24.821 97.7578 24.9129 97.5817 24.9886C97.4055 25.0644 97.1906 25.1023 96.9368 25.1023ZM97.0391 24.5C97.3042 24.5 97.5277 24.4479 97.7095 24.3438C97.8932 24.2396 98.0315 24.1051 98.1243 23.9403C98.219 23.7756 98.2663 23.6023 98.2663 23.4205V22.8068C98.2379 22.8409 98.1754 22.8722 98.0788 22.9006C97.9841 22.9271 97.8743 22.9508 97.7493 22.9716C97.6262 22.9905 97.5059 23.0076 97.3885 23.0227C97.273 23.036 97.1792 23.0473 97.1072 23.0568C96.933 23.0795 96.7701 23.1165 96.6186 23.1676C96.469 23.2169 96.3478 23.2917 96.255 23.392C96.1641 23.4905 96.1186 23.625 96.1186 23.7955C96.1186 24.0284 96.2048 24.2045 96.3771 24.3239C96.5514 24.4413 96.772 24.5 97.0391 24.5ZM102.058 20.6364V21.2045H99.7969V20.6364H102.058ZM100.456 19.5909H101.126V23.75C101.126 23.9394 101.154 24.0814 101.209 24.1761C101.266 24.2689 101.338 24.3314 101.425 24.3636C101.514 24.3939 101.607 24.4091 101.706 24.4091C101.78 24.4091 101.84 24.4053 101.888 24.3977C101.935 24.3883 101.973 24.3807 102.001 24.375L102.138 24.9773C102.092 24.9943 102.029 25.0114 101.947 25.0284C101.866 25.0473 101.763 25.0568 101.638 25.0568C101.448 25.0568 101.263 25.0161 101.081 24.9347C100.901 24.8532 100.751 24.7292 100.632 24.5625C100.515 24.3958 100.456 24.1856 100.456 23.9318V19.5909ZM105.01 20.6364V21.2045H102.658V20.6364H105.01ZM103.362 25V20.0341C103.362 19.7841 103.421 19.5758 103.538 19.4091C103.656 19.2424 103.808 19.1174 103.996 19.0341C104.183 18.9508 104.381 18.9091 104.589 18.9091C104.754 18.9091 104.889 18.9223 104.993 18.9489C105.097 18.9754 105.175 19 105.226 19.0227L105.033 19.6023C104.999 19.5909 104.951 19.5767 104.891 19.5597C104.832 19.5426 104.754 19.5341 104.658 19.5341C104.436 19.5341 104.276 19.59 104.178 19.7017C104.081 19.8134 104.033 19.9773 104.033 20.1932V25H103.362ZM107.543 25.0909C107.149 25.0909 106.803 24.9972 106.506 24.8097C106.21 24.6222 105.979 24.3598 105.812 24.0227C105.648 23.6856 105.565 23.2917 105.565 22.8409C105.565 22.3864 105.648 21.9896 105.812 21.6506C105.979 21.3116 106.21 21.0483 106.506 20.8608C106.803 20.6733 107.149 20.5795 107.543 20.5795C107.937 20.5795 108.281 20.6733 108.577 20.8608C108.874 21.0483 109.105 21.3116 109.27 21.6506C109.437 21.9896 109.52 22.3864 109.52 22.8409C109.52 23.2917 109.437 23.6856 109.27 24.0227C109.105 24.3598 108.874 24.6222 108.577 24.8097C108.281 24.9972 107.937 25.0909 107.543 25.0909ZM107.543 24.4886C107.842 24.4886 108.088 24.4119 108.281 24.2585C108.474 24.1051 108.617 23.9034 108.71 23.6534C108.803 23.4034 108.849 23.1326 108.849 22.8409C108.849 22.5492 108.803 22.2775 108.71 22.0256C108.617 21.7737 108.474 21.5701 108.281 21.4148C108.088 21.2595 107.842 21.1818 107.543 21.1818C107.243 21.1818 106.997 21.2595 106.804 21.4148C106.611 21.5701 106.468 21.7737 106.375 22.0256C106.282 22.2775 106.236 22.5492 106.236 22.8409C106.236 23.1326 106.282 23.4034 106.375 23.6534C106.468 23.9034 106.611 24.1051 106.804 24.2585C106.997 24.4119 107.243 24.4886 107.543 24.4886ZM110.543 25V20.6364H111.191V21.2955H111.237C111.316 21.0795 111.46 20.9044 111.668 20.7699C111.877 20.6354 112.112 20.5682 112.373 20.5682C112.422 20.5682 112.484 20.5691 112.558 20.571C112.631 20.5729 112.687 20.5758 112.725 20.5795V21.2614C112.702 21.2557 112.65 21.2472 112.569 21.2358C112.489 21.2225 112.405 21.2159 112.316 21.2159C112.104 21.2159 111.915 21.2604 111.748 21.3494C111.583 21.4366 111.452 21.5578 111.356 21.7131C111.261 21.8665 111.214 22.0417 111.214 22.2386V25H110.543ZM113.52 25V20.6364H114.168V21.3182H114.224C114.315 21.0852 114.462 20.9044 114.665 20.7756C114.867 20.6449 115.111 20.5795 115.395 20.5795C115.683 20.5795 115.922 20.6449 116.114 20.7756C116.307 20.9044 116.457 21.0852 116.565 21.3182H116.611C116.723 21.0928 116.89 20.9138 117.114 20.7812C117.337 20.6468 117.605 20.5795 117.918 20.5795C118.308 20.5795 118.627 20.7017 118.875 20.946C119.123 21.1884 119.247 21.5663 119.247 22.0795V25H118.577V22.0795C118.577 21.7576 118.489 21.5275 118.312 21.3892C118.136 21.2509 117.929 21.1818 117.69 21.1818C117.384 21.1818 117.146 21.2746 116.977 21.4602C116.809 21.6439 116.724 21.8769 116.724 22.1591V25H116.043V22.0114C116.043 21.7633 115.962 21.5634 115.801 21.4119C115.64 21.2585 115.433 21.1818 115.179 21.1818C115.005 21.1818 114.842 21.2282 114.69 21.321C114.541 21.4138 114.42 21.5426 114.327 21.7074C114.236 21.8703 114.19 22.0587 114.19 22.2727V25H113.52Z" fill="#797979"/>
<path d="M32.4336 14.0273L32.0234 12.9492H28.5312L28.1211 14.0508C27.9609 14.4805 27.8242 14.7715 27.7109 14.9238C27.5977 15.0723 27.4121 15.1465 27.1543 15.1465C26.9355 15.1465 26.7422 15.0664 26.5742 14.9062C26.4062 14.7461 26.3223 14.5645 26.3223 14.3613C26.3223 14.2441 26.3418 14.123 26.3809 13.998C26.4199 13.873 26.4844 13.6992 26.5742 13.4766L28.7715 7.89844C28.834 7.73828 28.9082 7.54688 28.9941 7.32422C29.084 7.09766 29.1777 6.91016 29.2754 6.76172C29.377 6.61328 29.5078 6.49414 29.668 6.4043C29.832 6.31055 30.0332 6.26367 30.2715 6.26367C30.5137 6.26367 30.7148 6.31055 30.875 6.4043C31.0391 6.49414 31.1699 6.61133 31.2676 6.75586C31.3691 6.90039 31.4531 7.05664 31.5195 7.22461C31.5898 7.38867 31.6777 7.60938 31.7832 7.88672L34.0273 13.4297C34.2031 13.8516 34.291 14.1582 34.291 14.3496C34.291 14.5488 34.207 14.7324 34.0391 14.9004C33.875 15.0645 33.6758 15.1465 33.4414 15.1465C33.3047 15.1465 33.1875 15.1211 33.0898 15.0703C32.9922 15.0234 32.9102 14.959 32.8438 14.877C32.7773 14.791 32.7051 14.6621 32.627 14.4902C32.5527 14.3145 32.4883 14.1602 32.4336 14.0273ZM28.9883 11.6426H31.5547L30.2598 8.09766L28.9883 11.6426ZM37.9121 11.3262H37.3027V14.0859C37.3027 14.4492 37.2227 14.7168 37.0625 14.8887C36.9023 15.0605 36.6934 15.1465 36.4355 15.1465C36.1582 15.1465 35.9434 15.0566 35.791 14.877C35.6387 14.6973 35.5625 14.4336 35.5625 14.0859V7.47656C35.5625 7.10156 35.6465 6.83008 35.8145 6.66211C35.9824 6.49414 36.2539 6.41016 36.6289 6.41016H39.459C39.8496 6.41016 40.1836 6.42773 40.4609 6.46289C40.7383 6.49414 40.9883 6.56055 41.2109 6.66211C41.4805 6.77539 41.7188 6.9375 41.9258 7.14844C42.1328 7.35938 42.2891 7.60547 42.3945 7.88672C42.5039 8.16406 42.5586 8.45898 42.5586 8.77148C42.5586 9.41211 42.377 9.92383 42.0137 10.3066C41.6543 10.6895 41.1074 10.9609 40.373 11.1211C40.6816 11.2852 40.9766 11.5273 41.2578 11.8477C41.5391 12.168 41.7891 12.5098 42.0078 12.873C42.2305 13.2324 42.4023 13.5586 42.5234 13.8516C42.6484 14.1406 42.7109 14.3398 42.7109 14.4492C42.7109 14.5625 42.6738 14.6758 42.5996 14.7891C42.5293 14.8984 42.4316 14.9844 42.3066 15.0469C42.1816 15.1133 42.0371 15.1465 41.873 15.1465C41.6777 15.1465 41.5137 15.0996 41.3809 15.0059C41.248 14.916 41.1328 14.8008 41.0352 14.6602C40.9414 14.5195 40.8125 14.3125 40.6484 14.0391L39.9512 12.8789C39.7012 12.4531 39.4766 12.1289 39.2773 11.9062C39.082 11.6836 38.8828 11.5312 38.6797 11.4492C38.4766 11.3672 38.2207 11.3262 37.9121 11.3262ZM38.9082 7.7168H37.3027V10.0781H38.8613C39.2793 10.0781 39.6309 10.043 39.916 9.97266C40.2012 9.89844 40.418 9.77539 40.5664 9.60352C40.7188 9.42773 40.7949 9.1875 40.7949 8.88281C40.7949 8.64453 40.7344 8.43555 40.6133 8.25586C40.4922 8.07227 40.3242 7.93555 40.1094 7.8457C39.9062 7.75977 39.5059 7.7168 38.9082 7.7168Z" fill="#1C3866"/>
<path d="M52.707 14.0273L52.2969 12.9492H48.8047L48.3945 14.0508C48.2344 14.4805 48.0977 14.7715 47.9844 14.9238C47.8711 15.0723 47.6855 15.1465 47.4277 15.1465C47.209 15.1465 47.0156 15.0664 46.8477 14.9062C46.6797 14.7461 46.5957 14.5645 46.5957 14.3613C46.5957 14.2441 46.6152 14.123 46.6543 13.998C46.6934 13.873 46.7578 13.6992 46.8477 13.4766L49.0449 7.89844C49.1074 7.73828 49.1816 7.54688 49.2676 7.32422C49.3574 7.09766 49.4512 6.91016 49.5488 6.76172C49.6504 6.61328 49.7812 6.49414 49.9414 6.4043C50.1055 6.31055 50.3066 6.26367 50.5449 6.26367C50.7871 6.26367 50.9883 6.31055 51.1484 6.4043C51.3125 6.49414 51.4434 6.61133 51.541 6.75586C51.6426 6.90039 51.7266 7.05664 51.793 7.22461C51.8633 7.38867 51.9512 7.60938 52.0566 7.88672L54.3008 13.4297C54.4766 13.8516 54.5645 14.1582 54.5645 14.3496C54.5645 14.5488 54.4805 14.7324 54.3125 14.9004C54.1484 15.0645 53.9492 15.1465 53.7148 15.1465C53.5781 15.1465 53.4609 15.1211 53.3633 15.0703C53.2656 15.0234 53.1836 14.959 53.1172 14.877C53.0508 14.791 52.9785 14.6621 52.9004 14.4902C52.8262 14.3145 52.7617 14.1602 52.707 14.0273ZM49.2617 11.6426H51.8281L50.5332 8.09766L49.2617 11.6426ZM55.918 14.0859V7.31836C55.918 6.9668 55.998 6.70312 56.1582 6.52734C56.3184 6.35156 56.5254 6.26367 56.7793 6.26367C57.041 6.26367 57.252 6.35156 57.4121 6.52734C57.5762 6.69922 57.6582 6.96289 57.6582 7.31836V14.0859C57.6582 14.4414 57.5762 14.707 57.4121 14.8828C57.252 15.0586 57.041 15.1465 56.7793 15.1465C56.5293 15.1465 56.3223 15.0586 56.1582 14.8828C55.998 14.7031 55.918 14.4375 55.918 14.0859Z" fill="url(#paint0_linear_197_938)"/>
<path d="M15.4922 9.22998C15.9733 9.22998 16.3633 9.61999 16.3633 10.1011C16.3633 10.5822 15.9733 10.9722 15.4922 10.9722C15.0111 10.9722 14.6211 10.5822 14.6211 10.1011C14.6211 9.61999 15.0111 9.22998 15.4922 9.22998ZM18.291 9.22998C18.7721 9.22998 19.1621 9.62004 19.1621 10.1011C19.1621 10.5822 18.7721 10.9722 18.291 10.9722C17.81 10.972 17.4199 10.5821 17.4199 10.1011C17.42 9.62011 17.8101 9.2301 18.291 9.22998ZM20.9131 9.24854C21.1104 9.20734 21.3165 9.23531 21.4951 9.32861C21.6737 9.42191 21.8147 9.57481 21.8936 9.76025L21.0918 10.1011L21.8994 10.4272C21.824 10.614 21.6864 10.7691 21.5098 10.8657C21.3329 10.9624 21.1277 10.9949 20.9297 10.9575C20.7317 10.9201 20.5531 10.8142 20.4238 10.6597C20.2947 10.5052 20.2227 10.3112 20.2207 10.1099C20.2188 9.90839 20.2868 9.71215 20.4131 9.55518C20.5393 9.3983 20.716 9.28981 20.9131 9.24854Z" fill="url(#paint1_linear_197_938)"/>
<path d="M18.9111 3C19.5124 3.00007 19.9999 3.4876 20 4.08887V4.66602H20.2002C22.2618 4.66609 23.9334 6.33785 23.9336 8.39941V9H25.3154C25.6933 9.00007 25.9999 9.30667 26 9.68457V11.3154C26 11.6934 25.6934 11.9999 25.3154 12H23.9316C23.896 14.031 22.2396 15.6669 20.2002 15.667H15.667C13.6275 15.6669 11.9712 14.031 11.9355 12H10.6846C10.3066 12 10 11.6934 10 11.3154V9.68457C10.0001 9.30662 10.3066 9 10.6846 9H11.9336V8.39941C11.9338 6.33784 13.6054 4.66608 15.667 4.66602H16V4.08887C16.0001 3.48756 16.4875 3 17.0889 3H18.9111ZM15.8535 6.39551C14.4791 6.39557 13.3643 7.51031 13.3643 8.88477V11.9639C13.3643 13.3384 14.479 14.4531 15.8535 14.4531H18.7471L19 15.5L19.8516 14.4531H20.1152C21.4897 14.4531 22.6045 13.3383 22.6045 11.9639V8.88477C22.6044 7.51032 21.4897 6.39558 20.1152 6.39551H15.8535Z" fill="#1C3866"/>
<defs>
<linearGradient id="paint0_linear_197_938" x1="26" y1="11" x2="59" y2="11" gradientUnits="userSpaceOnUse">
<stop stop-color="#F49C4E"/>
<stop offset="1" stop-color="#FF8212"/>
</linearGradient>
<linearGradient id="paint1_linear_197_938" x1="18.2603" y1="9.22998" x2="18.2603" y2="10.9727" gradientUnits="userSpaceOnUse">
<stop stop-color="#F09A57"/>
<stop offset="1" stop-color="#FEA137"/>
</linearGradient>
</defs>
</svg>
